G04 EAGLE Gerber RS-274X export*
G75*
%MOMM*%
%FSLAX34Y34*%
%LPD*%
%INBottom Copper*%
%IPPOS*%
%AMOC8*
5,1,8,0,0,1.08239X$1,22.5*%
G01*
G04 Define Apertures*
%ADD10C,0.127000*%
%ADD11C,0.452400*%
G36*
X737027Y2568D02*
X736730Y2508D01*
X3270Y2508D01*
X2995Y2559D01*
X2740Y2723D01*
X2568Y2973D01*
X2508Y3270D01*
X2508Y452732D01*
X2559Y453007D01*
X2723Y453262D01*
X2973Y453434D01*
X3270Y453494D01*
X59693Y453494D01*
X61311Y455112D01*
X61311Y637900D01*
X59693Y639518D01*
X3270Y639518D01*
X2995Y639569D01*
X2740Y639733D01*
X2568Y639983D01*
X2508Y640280D01*
X2508Y1108730D01*
X2559Y1109005D01*
X2723Y1109260D01*
X2973Y1109432D01*
X3270Y1109492D01*
X212148Y1109492D01*
X212423Y1109441D01*
X212678Y1109277D01*
X212849Y1109027D01*
X212910Y1108730D01*
X212910Y1103961D01*
X214379Y1102492D01*
X486730Y1102492D01*
X487005Y1102441D01*
X487260Y1102277D01*
X487432Y1102027D01*
X487492Y1101730D01*
X487492Y1089294D01*
X487441Y1089019D01*
X487277Y1088764D01*
X487027Y1088592D01*
X486730Y1088532D01*
X486037Y1088532D01*
X483968Y1086463D01*
X483968Y1084478D01*
X483912Y1084192D01*
X483745Y1083939D01*
X466689Y1066883D01*
X466459Y1066725D01*
X466163Y1066660D01*
X465865Y1066716D01*
X465612Y1066883D01*
X463963Y1068532D01*
X461037Y1068532D01*
X458968Y1066463D01*
X458968Y1063537D01*
X460372Y1062133D01*
X460535Y1061892D01*
X460595Y1061594D01*
X460595Y856105D01*
X460539Y855819D01*
X460372Y855566D01*
X248561Y643755D01*
X248320Y643592D01*
X248022Y643532D01*
X246037Y643532D01*
X245706Y643201D01*
X245486Y643048D01*
X245191Y642978D01*
X244892Y643029D01*
X244637Y643192D01*
X244465Y643442D01*
X244405Y643740D01*
X244405Y963289D01*
X216255Y991439D01*
X216092Y991681D01*
X216032Y991978D01*
X216032Y993963D01*
X214628Y995367D01*
X214465Y995608D01*
X214405Y995906D01*
X214405Y1074094D01*
X214461Y1074380D01*
X214628Y1074633D01*
X216032Y1076037D01*
X216032Y1078963D01*
X213963Y1081032D01*
X211037Y1081032D01*
X208968Y1078963D01*
X208968Y1076037D01*
X210372Y1074633D01*
X210535Y1074392D01*
X210595Y1074094D01*
X210595Y995906D01*
X210539Y995620D01*
X210372Y995367D01*
X208968Y993963D01*
X208968Y991037D01*
X211037Y988968D01*
X213022Y988968D01*
X213308Y988912D01*
X213561Y988745D01*
X240372Y961934D01*
X240535Y961693D01*
X240595Y961395D01*
X240595Y816439D01*
X240548Y816175D01*
X240389Y815917D01*
X240141Y815742D01*
X239845Y815677D01*
X239547Y815732D01*
X239294Y815900D01*
X106255Y948939D01*
X106092Y949181D01*
X106032Y949478D01*
X106032Y951463D01*
X103963Y953532D01*
X101037Y953532D01*
X100706Y953201D01*
X100486Y953048D01*
X100191Y952978D01*
X99892Y953029D01*
X99637Y953192D01*
X99465Y953442D01*
X99405Y953740D01*
X99405Y1014094D01*
X99461Y1014380D01*
X99628Y1014633D01*
X101032Y1016037D01*
X101032Y1018963D01*
X98963Y1021032D01*
X96037Y1021032D01*
X93968Y1018963D01*
X93968Y1016037D01*
X95372Y1014633D01*
X95535Y1014392D01*
X95595Y1014094D01*
X95595Y485906D01*
X95539Y485620D01*
X95372Y485367D01*
X93968Y483963D01*
X93968Y481037D01*
X96037Y478968D01*
X98963Y478968D01*
X99294Y479299D01*
X99514Y479452D01*
X99809Y479522D01*
X100108Y479471D01*
X100363Y479308D01*
X100535Y479058D01*
X100595Y478760D01*
X100595Y473406D01*
X100539Y473120D01*
X100372Y472867D01*
X98968Y471463D01*
X98968Y468537D01*
X101037Y466468D01*
X103963Y466468D01*
X106032Y468537D01*
X106032Y471463D01*
X104628Y472867D01*
X104465Y473108D01*
X104405Y473406D01*
X104405Y879094D01*
X104461Y879380D01*
X104628Y879633D01*
X106032Y881037D01*
X106032Y883963D01*
X103963Y886032D01*
X101037Y886032D01*
X100706Y885701D01*
X100486Y885548D01*
X100191Y885478D01*
X99892Y885529D01*
X99637Y885692D01*
X99465Y885942D01*
X99405Y886240D01*
X99405Y926260D01*
X99452Y926524D01*
X99611Y926782D01*
X99859Y926957D01*
X100155Y927022D01*
X100453Y926967D01*
X100706Y926799D01*
X101037Y926468D01*
X103022Y926468D01*
X103308Y926412D01*
X103561Y926245D01*
X147872Y881934D01*
X148035Y881693D01*
X148095Y881395D01*
X148095Y450906D01*
X148039Y450620D01*
X147872Y450367D01*
X146468Y448963D01*
X146468Y446037D01*
X148537Y443968D01*
X151463Y443968D01*
X153532Y446037D01*
X153532Y448963D01*
X152128Y450367D01*
X151965Y450608D01*
X151905Y450906D01*
X151905Y883289D01*
X106255Y928939D01*
X106092Y929181D01*
X106032Y929478D01*
X106032Y931463D01*
X103963Y933532D01*
X101037Y933532D01*
X100706Y933201D01*
X100486Y933048D01*
X100191Y932978D01*
X99892Y933029D01*
X99637Y933192D01*
X99465Y933442D01*
X99405Y933740D01*
X99405Y946260D01*
X99452Y946524D01*
X99611Y946782D01*
X99859Y946957D01*
X100155Y947022D01*
X100453Y946967D01*
X100706Y946799D01*
X101037Y946468D01*
X103022Y946468D01*
X103308Y946412D01*
X103561Y946245D01*
X235372Y814434D01*
X235535Y814193D01*
X235595Y813895D01*
X235595Y634211D01*
X321245Y548561D01*
X321408Y548320D01*
X321468Y548022D01*
X321468Y546037D01*
X323537Y543968D01*
X326463Y543968D01*
X326794Y544299D01*
X327014Y544452D01*
X327309Y544522D01*
X327608Y544471D01*
X327863Y544308D01*
X328035Y544058D01*
X328095Y543760D01*
X328095Y505906D01*
X328039Y505620D01*
X327872Y505367D01*
X326468Y503963D01*
X326468Y501037D01*
X328537Y498968D01*
X331463Y498968D01*
X333532Y501037D01*
X333532Y503963D01*
X332128Y505367D01*
X331965Y505608D01*
X331905Y505906D01*
X331905Y553206D01*
X331956Y553481D01*
X332120Y553736D01*
X332370Y553908D01*
X332667Y553968D01*
X333963Y553968D01*
X336032Y556037D01*
X336032Y558963D01*
X333963Y561032D01*
X331037Y561032D01*
X328968Y558963D01*
X328968Y556978D01*
X328912Y556692D01*
X328745Y556439D01*
X328039Y555733D01*
X327808Y555575D01*
X327512Y555510D01*
X327214Y555565D01*
X326961Y555733D01*
X247527Y635167D01*
X247374Y635387D01*
X247304Y635682D01*
X247355Y635981D01*
X247518Y636236D01*
X247769Y636408D01*
X248066Y636468D01*
X248963Y636468D01*
X251032Y638537D01*
X251032Y640522D01*
X251088Y640808D01*
X251255Y641061D01*
X270167Y659973D01*
X270387Y660126D01*
X270682Y660196D01*
X270981Y660145D01*
X271236Y659982D01*
X271408Y659732D01*
X271468Y659434D01*
X271468Y658537D01*
X273537Y656468D01*
X276463Y656468D01*
X278532Y658537D01*
X278532Y660522D01*
X278588Y660808D01*
X278755Y661061D01*
X609405Y991711D01*
X609405Y1064094D01*
X609461Y1064380D01*
X609628Y1064633D01*
X611032Y1066037D01*
X611032Y1068963D01*
X608963Y1071032D01*
X606037Y1071032D01*
X603968Y1068963D01*
X603968Y1066037D01*
X605372Y1064633D01*
X605535Y1064392D01*
X605595Y1064094D01*
X605595Y993605D01*
X605539Y993319D01*
X605372Y993066D01*
X465706Y853400D01*
X465486Y853247D01*
X465191Y853177D01*
X464892Y853228D01*
X464637Y853391D01*
X464465Y853642D01*
X464405Y853939D01*
X464405Y1058895D01*
X464461Y1059181D01*
X464628Y1059434D01*
X486439Y1081245D01*
X486681Y1081408D01*
X486978Y1081468D01*
X488963Y1081468D01*
X491032Y1083537D01*
X491032Y1086476D01*
X490902Y1086666D01*
X490837Y1086962D01*
X490892Y1087260D01*
X491060Y1087513D01*
X492508Y1088961D01*
X492508Y1101730D01*
X492559Y1102005D01*
X492723Y1102260D01*
X492973Y1102432D01*
X493270Y1102492D01*
X636730Y1102492D01*
X637005Y1102441D01*
X637260Y1102277D01*
X637432Y1102027D01*
X637492Y1101730D01*
X637492Y1088961D01*
X638961Y1087492D01*
X641039Y1087492D01*
X642508Y1088961D01*
X642508Y1101730D01*
X642559Y1102005D01*
X642723Y1102260D01*
X642973Y1102432D01*
X643270Y1102492D01*
X711039Y1102492D01*
X712508Y1103961D01*
X712508Y1108730D01*
X712559Y1109005D01*
X712723Y1109260D01*
X712973Y1109432D01*
X713270Y1109492D01*
X918730Y1109492D01*
X919005Y1109441D01*
X919260Y1109277D01*
X919432Y1109027D01*
X919492Y1108730D01*
X919492Y670961D01*
X920961Y669492D01*
X1698730Y669492D01*
X1699005Y669441D01*
X1699260Y669277D01*
X1699432Y669027D01*
X1699492Y668730D01*
X1699492Y546107D01*
X1699441Y545832D01*
X1699277Y545577D01*
X1699027Y545405D01*
X1698730Y545345D01*
X1668961Y545345D01*
X1667492Y543876D01*
X1667492Y541798D01*
X1668961Y540329D01*
X1698730Y540329D01*
X1699005Y540278D01*
X1699260Y540114D01*
X1699432Y539864D01*
X1699492Y539567D01*
X1699492Y196112D01*
X1699441Y195838D01*
X1699277Y195582D01*
X1699027Y195411D01*
X1698730Y195350D01*
X1667554Y195350D01*
X1666085Y193881D01*
X1666085Y191803D01*
X1667554Y190334D01*
X1698730Y190334D01*
X1699005Y190283D01*
X1699260Y190120D01*
X1699432Y189870D01*
X1699492Y189572D01*
X1699492Y3270D01*
X1699441Y2995D01*
X1699277Y2740D01*
X1699027Y2568D01*
X1698730Y2508D01*
X925270Y2508D01*
X924995Y2559D01*
X924740Y2723D01*
X924568Y2973D01*
X924508Y3270D01*
X924508Y101039D01*
X923753Y101794D01*
X923600Y102014D01*
X923530Y102309D01*
X923581Y102608D01*
X923744Y102863D01*
X923994Y103035D01*
X924291Y103095D01*
X926594Y103095D01*
X926880Y103039D01*
X927133Y102872D01*
X928537Y101468D01*
X931463Y101468D01*
X933532Y103537D01*
X933532Y106463D01*
X933201Y106794D01*
X933048Y107014D01*
X932978Y107309D01*
X933029Y107608D01*
X933192Y107863D01*
X933442Y108035D01*
X933740Y108095D01*
X936594Y108095D01*
X936880Y108039D01*
X937133Y107872D01*
X938537Y106468D01*
X941463Y106468D01*
X943532Y108537D01*
X943532Y111463D01*
X941463Y113532D01*
X938537Y113532D01*
X937133Y112128D01*
X936892Y111965D01*
X936594Y111905D01*
X885167Y111905D01*
X884892Y111956D01*
X884637Y112120D01*
X884465Y112370D01*
X884405Y112667D01*
X884405Y126260D01*
X884452Y126524D01*
X884611Y126782D01*
X884859Y126957D01*
X885155Y127022D01*
X885453Y126967D01*
X885706Y126799D01*
X886037Y126468D01*
X888963Y126468D01*
X891032Y128537D01*
X891032Y131463D01*
X889628Y132867D01*
X889465Y133108D01*
X889405Y133406D01*
X889405Y571395D01*
X889461Y571681D01*
X889628Y571934D01*
X918939Y601245D01*
X919181Y601408D01*
X919478Y601468D01*
X921463Y601468D01*
X923532Y603537D01*
X923532Y606463D01*
X921463Y608532D01*
X918537Y608532D01*
X916468Y606463D01*
X916468Y604478D01*
X916412Y604192D01*
X916245Y603939D01*
X885595Y573289D01*
X885595Y303740D01*
X885548Y303476D01*
X885389Y303218D01*
X885141Y303043D01*
X884845Y302978D01*
X884547Y303033D01*
X884294Y303201D01*
X883963Y303532D01*
X881037Y303532D01*
X878968Y301463D01*
X878968Y298537D01*
X880372Y297133D01*
X880535Y296892D01*
X880595Y296594D01*
X880595Y121240D01*
X880548Y120976D01*
X880389Y120718D01*
X880141Y120543D01*
X879845Y120478D01*
X879547Y120533D01*
X879294Y120701D01*
X878963Y121032D01*
X876978Y121032D01*
X876692Y121088D01*
X876439Y121255D01*
X869628Y128066D01*
X869465Y128308D01*
X869405Y128605D01*
X869405Y195789D01*
X854628Y210566D01*
X854465Y210808D01*
X854405Y211105D01*
X854405Y590789D01*
X853755Y591439D01*
X853592Y591681D01*
X853532Y591978D01*
X853532Y593963D01*
X851463Y596032D01*
X850566Y596032D01*
X850302Y596079D01*
X850044Y596238D01*
X849869Y596486D01*
X849804Y596782D01*
X849859Y597080D01*
X850027Y597333D01*
X850566Y597872D01*
X850808Y598035D01*
X851105Y598095D01*
X899094Y598095D01*
X899380Y598039D01*
X899633Y597872D01*
X901037Y596468D01*
X903963Y596468D01*
X906032Y598537D01*
X906032Y601463D01*
X903963Y603532D01*
X901037Y603532D01*
X899633Y602128D01*
X899392Y601965D01*
X899094Y601905D01*
X851439Y601905D01*
X851175Y601952D01*
X850917Y602111D01*
X850742Y602359D01*
X850677Y602655D01*
X850732Y602953D01*
X850900Y603206D01*
X863066Y615372D01*
X863308Y615535D01*
X863605Y615595D01*
X1087333Y615595D01*
X1087608Y615544D01*
X1087863Y615380D01*
X1088035Y615130D01*
X1088095Y614833D01*
X1088095Y554211D01*
X1091711Y550595D01*
X1138561Y550595D01*
X1138825Y550548D01*
X1139083Y550389D01*
X1139258Y550141D01*
X1139323Y549845D01*
X1139268Y549547D01*
X1139100Y549294D01*
X1065595Y475789D01*
X1065595Y453605D01*
X1065539Y453319D01*
X1065372Y453066D01*
X936061Y323755D01*
X935820Y323592D01*
X935522Y323532D01*
X933537Y323532D01*
X933206Y323201D01*
X932986Y323048D01*
X932691Y322978D01*
X932392Y323029D01*
X932137Y323192D01*
X931965Y323442D01*
X931905Y323740D01*
X931905Y373760D01*
X931952Y374024D01*
X932111Y374282D01*
X932359Y374457D01*
X932655Y374522D01*
X932953Y374467D01*
X933206Y374299D01*
X933537Y373968D01*
X936463Y373968D01*
X938532Y376037D01*
X938532Y378963D01*
X937128Y380367D01*
X936965Y380608D01*
X936905Y380906D01*
X936905Y386395D01*
X936961Y386681D01*
X937128Y386934D01*
X1063939Y513745D01*
X1064181Y513908D01*
X1064478Y513968D01*
X1066463Y513968D01*
X1068532Y516037D01*
X1068532Y518963D01*
X1066463Y521032D01*
X1063537Y521032D01*
X1061468Y518963D01*
X1061468Y516978D01*
X1061412Y516692D01*
X1061245Y516439D01*
X933095Y388289D01*
X933095Y383939D01*
X933048Y383675D01*
X932889Y383417D01*
X932641Y383242D01*
X932345Y383177D01*
X932047Y383232D01*
X931794Y383400D01*
X928755Y386439D01*
X928592Y386681D01*
X928532Y386978D01*
X928532Y388963D01*
X926463Y391032D01*
X923537Y391032D01*
X923206Y390701D01*
X922986Y390548D01*
X922691Y390478D01*
X922392Y390529D01*
X922137Y390692D01*
X921965Y390942D01*
X921905Y391240D01*
X921905Y423760D01*
X921952Y424024D01*
X922111Y424282D01*
X922359Y424457D01*
X922655Y424522D01*
X922953Y424467D01*
X923206Y424299D01*
X923537Y423968D01*
X926463Y423968D01*
X928532Y426037D01*
X928532Y428022D01*
X928588Y428308D01*
X928755Y428561D01*
X988939Y488745D01*
X989181Y488908D01*
X989478Y488968D01*
X991463Y488968D01*
X993532Y491037D01*
X993532Y493963D01*
X991463Y496032D01*
X988537Y496032D01*
X986468Y493963D01*
X986468Y491978D01*
X986412Y491692D01*
X986245Y491439D01*
X926061Y431255D01*
X925820Y431092D01*
X925522Y431032D01*
X923537Y431032D01*
X923206Y430701D01*
X922986Y430548D01*
X922691Y430478D01*
X922392Y430529D01*
X922137Y430692D01*
X921965Y430942D01*
X921905Y431240D01*
X921905Y561260D01*
X921952Y561524D01*
X922111Y561782D01*
X922359Y561957D01*
X922655Y562022D01*
X922953Y561967D01*
X923206Y561799D01*
X923537Y561468D01*
X925522Y561468D01*
X925808Y561412D01*
X926061Y561245D01*
X946245Y541061D01*
X946408Y540820D01*
X946468Y540522D01*
X946468Y538537D01*
X948537Y536468D01*
X951463Y536468D01*
X953532Y538537D01*
X953532Y541463D01*
X951463Y543532D01*
X949478Y543532D01*
X949192Y543588D01*
X948939Y543755D01*
X928755Y563939D01*
X928592Y564181D01*
X928532Y564478D01*
X928532Y566463D01*
X926463Y568532D01*
X923537Y568532D01*
X923206Y568201D01*
X922986Y568048D01*
X922691Y567978D01*
X922392Y568029D01*
X922137Y568192D01*
X921965Y568442D01*
X921905Y568740D01*
X921905Y578895D01*
X921961Y579181D01*
X922128Y579434D01*
X936439Y593745D01*
X936681Y593908D01*
X936978Y593968D01*
X938963Y593968D01*
X941032Y596037D01*
X941032Y598963D01*
X938963Y601032D01*
X936037Y601032D01*
X933968Y598963D01*
X933968Y596978D01*
X933912Y596692D01*
X933745Y596439D01*
X929833Y592527D01*
X929613Y592374D01*
X929318Y592304D01*
X929019Y592355D01*
X928764Y592518D01*
X928592Y592769D01*
X928532Y593066D01*
X928532Y593963D01*
X926463Y596032D01*
X923537Y596032D01*
X921468Y593963D01*
X921468Y591978D01*
X921412Y591692D01*
X921245Y591439D01*
X917333Y587527D01*
X917113Y587374D01*
X916818Y587304D01*
X916519Y587355D01*
X916264Y587518D01*
X916092Y587769D01*
X916032Y588066D01*
X916032Y588963D01*
X913963Y591032D01*
X911037Y591032D01*
X908968Y588963D01*
X908968Y586978D01*
X908912Y586692D01*
X908745Y586439D01*
X893095Y570789D01*
X893095Y530906D01*
X893039Y530620D01*
X892872Y530367D01*
X891468Y528963D01*
X891468Y526037D01*
X893537Y523968D01*
X896463Y523968D01*
X898532Y526037D01*
X898532Y528963D01*
X897128Y530367D01*
X896965Y530608D01*
X896905Y530906D01*
X896905Y568895D01*
X896961Y569181D01*
X897128Y569434D01*
X899294Y571600D01*
X899514Y571753D01*
X899809Y571823D01*
X900108Y571772D01*
X900363Y571609D01*
X900535Y571359D01*
X900595Y571061D01*
X900595Y520906D01*
X900539Y520620D01*
X900372Y520367D01*
X898968Y518963D01*
X898968Y516037D01*
X901037Y513968D01*
X903963Y513968D01*
X906032Y516037D01*
X906032Y518963D01*
X904628Y520367D01*
X904465Y520608D01*
X904405Y520906D01*
X904405Y568895D01*
X904461Y569181D01*
X904628Y569434D01*
X916794Y581600D01*
X917014Y581753D01*
X917309Y581823D01*
X917608Y581772D01*
X917863Y581609D01*
X918035Y581359D01*
X918095Y581061D01*
X918095Y516240D01*
X918048Y515976D01*
X917889Y515718D01*
X917641Y515543D01*
X917345Y515478D01*
X917047Y515533D01*
X916794Y515701D01*
X916463Y516032D01*
X913537Y516032D01*
X911468Y513963D01*
X911468Y511037D01*
X912872Y509633D01*
X913035Y509392D01*
X913095Y509094D01*
X913095Y161105D01*
X913039Y160819D01*
X912872Y160566D01*
X903561Y151255D01*
X903320Y151092D01*
X903022Y151032D01*
X901037Y151032D01*
X898968Y148963D01*
X898968Y146037D01*
X901037Y143968D01*
X903963Y143968D01*
X906032Y146037D01*
X906032Y148022D01*
X906088Y148308D01*
X906255Y148561D01*
X916794Y159100D01*
X917014Y159253D01*
X917309Y159323D01*
X917608Y159272D01*
X917863Y159109D01*
X918035Y158859D01*
X918095Y158561D01*
X918095Y150906D01*
X918039Y150620D01*
X917872Y150367D01*
X916468Y148963D01*
X916468Y146037D01*
X918537Y143968D01*
X921463Y143968D01*
X923532Y146037D01*
X923532Y148963D01*
X922128Y150367D01*
X921965Y150608D01*
X921905Y150906D01*
X921905Y383760D01*
X921952Y384024D01*
X922111Y384282D01*
X922359Y384457D01*
X922655Y384522D01*
X922953Y384467D01*
X923206Y384299D01*
X923537Y383968D01*
X925522Y383968D01*
X925808Y383912D01*
X926061Y383745D01*
X927872Y381934D01*
X928035Y381693D01*
X928095Y381395D01*
X928095Y160906D01*
X928039Y160620D01*
X927872Y160367D01*
X926468Y158963D01*
X926468Y156037D01*
X928537Y153968D01*
X930522Y153968D01*
X930808Y153912D01*
X931061Y153745D01*
X1053745Y31061D01*
X1053908Y30820D01*
X1053968Y30522D01*
X1053968Y28537D01*
X1056037Y26468D01*
X1058963Y26468D01*
X1061032Y28537D01*
X1061032Y31463D01*
X1058963Y33532D01*
X1056978Y33532D01*
X1056692Y33588D01*
X1056439Y33755D01*
X933755Y156439D01*
X933592Y156681D01*
X933532Y156978D01*
X933532Y158963D01*
X932128Y160367D01*
X931965Y160608D01*
X931905Y160906D01*
X931905Y316260D01*
X931952Y316524D01*
X932111Y316782D01*
X932359Y316957D01*
X932655Y317022D01*
X932953Y316967D01*
X933206Y316799D01*
X933537Y316468D01*
X936463Y316468D01*
X938532Y318537D01*
X938532Y320522D01*
X938588Y320808D01*
X938755Y321061D01*
X1000167Y382473D01*
X1000387Y382626D01*
X1000682Y382696D01*
X1000981Y382645D01*
X1001236Y382482D01*
X1001408Y382232D01*
X1001468Y381934D01*
X1001468Y381037D01*
X1003537Y378968D01*
X1006463Y378968D01*
X1008532Y381037D01*
X1008532Y383022D01*
X1008588Y383308D01*
X1008755Y383561D01*
X1079405Y454211D01*
X1079405Y466594D01*
X1079461Y466880D01*
X1079628Y467133D01*
X1081032Y468537D01*
X1081032Y470522D01*
X1081088Y470808D01*
X1081255Y471061D01*
X1150566Y540372D01*
X1150808Y540535D01*
X1151105Y540595D01*
X1175825Y540595D01*
X1175942Y540675D01*
X1176238Y540740D01*
X1176536Y540685D01*
X1176789Y540517D01*
X1200372Y516934D01*
X1200535Y516693D01*
X1200595Y516395D01*
X1200595Y508406D01*
X1200539Y508120D01*
X1200372Y507867D01*
X1198968Y506463D01*
X1198968Y503537D01*
X1201037Y501468D01*
X1203963Y501468D01*
X1206032Y503537D01*
X1206032Y506463D01*
X1204628Y507867D01*
X1204465Y508108D01*
X1204405Y508406D01*
X1204405Y518289D01*
X1178755Y543939D01*
X1178592Y544181D01*
X1178532Y544478D01*
X1178532Y546463D01*
X1176463Y548532D01*
X1173537Y548532D01*
X1171468Y546463D01*
X1171468Y545167D01*
X1171417Y544892D01*
X1171253Y544637D01*
X1171003Y544465D01*
X1170706Y544405D01*
X1153740Y544405D01*
X1153476Y544452D01*
X1153218Y544611D01*
X1153043Y544859D01*
X1152978Y545155D01*
X1153033Y545453D01*
X1153201Y545706D01*
X1153532Y546037D01*
X1153532Y548963D01*
X1152128Y550367D01*
X1151965Y550608D01*
X1151905Y550906D01*
X1151905Y558289D01*
X1150789Y559405D01*
X1141711Y559405D01*
X1138095Y555789D01*
X1138095Y555167D01*
X1138044Y554892D01*
X1137880Y554637D01*
X1137630Y554465D01*
X1137333Y554405D01*
X1098740Y554405D01*
X1098476Y554452D01*
X1098218Y554611D01*
X1098043Y554859D01*
X1097978Y555155D01*
X1098033Y555453D01*
X1098201Y555706D01*
X1098532Y556037D01*
X1098532Y558963D01*
X1097128Y560367D01*
X1096965Y560608D01*
X1096905Y560906D01*
X1096905Y660789D01*
X1095900Y661794D01*
X1095747Y662014D01*
X1095677Y662309D01*
X1095728Y662608D01*
X1095891Y662863D01*
X1096142Y663035D01*
X1096439Y663095D01*
X1262333Y663095D01*
X1262608Y663044D01*
X1262863Y662880D01*
X1263035Y662630D01*
X1263095Y662333D01*
X1263095Y409211D01*
X1576245Y96061D01*
X1576408Y95820D01*
X1576468Y95522D01*
X1576468Y93537D01*
X1578537Y91468D01*
X1581463Y91468D01*
X1583532Y93537D01*
X1583532Y96463D01*
X1581463Y98532D01*
X1579478Y98532D01*
X1579192Y98588D01*
X1578939Y98755D01*
X1267128Y410566D01*
X1266965Y410808D01*
X1266905Y411105D01*
X1266905Y558561D01*
X1266952Y558825D01*
X1267111Y559083D01*
X1267359Y559258D01*
X1267655Y559323D01*
X1267953Y559268D01*
X1268206Y559100D01*
X1628745Y198561D01*
X1628908Y198320D01*
X1628968Y198022D01*
X1628968Y196037D01*
X1631037Y193968D01*
X1633963Y193968D01*
X1636032Y196037D01*
X1636032Y198963D01*
X1633963Y201032D01*
X1631978Y201032D01*
X1631692Y201088D01*
X1631439Y201255D01*
X1272128Y560566D01*
X1271965Y560808D01*
X1271905Y561105D01*
X1271905Y579094D01*
X1271961Y579380D01*
X1272128Y579633D01*
X1273532Y581037D01*
X1273532Y583963D01*
X1271463Y586032D01*
X1268537Y586032D01*
X1268206Y585701D01*
X1267986Y585548D01*
X1267691Y585478D01*
X1267392Y585529D01*
X1267137Y585692D01*
X1266965Y585942D01*
X1266905Y586240D01*
X1266905Y665789D01*
X1265789Y666905D01*
X874211Y666905D01*
X854434Y647128D01*
X854193Y646965D01*
X853895Y646905D01*
X825906Y646905D01*
X825620Y646961D01*
X825367Y647128D01*
X823963Y648532D01*
X821037Y648532D01*
X818968Y646463D01*
X818968Y643537D01*
X821037Y641468D01*
X823963Y641468D01*
X825367Y642872D01*
X825608Y643035D01*
X825906Y643095D01*
X853561Y643095D01*
X853825Y643048D01*
X854083Y642889D01*
X854258Y642641D01*
X854323Y642345D01*
X854268Y642047D01*
X854100Y641794D01*
X802333Y590027D01*
X802113Y589874D01*
X801818Y589804D01*
X801519Y589855D01*
X801264Y590018D01*
X801092Y590269D01*
X801032Y590566D01*
X801032Y591463D01*
X798963Y593532D01*
X796978Y593532D01*
X796692Y593588D01*
X796439Y593755D01*
X768755Y621439D01*
X768592Y621681D01*
X768532Y621978D01*
X768532Y623963D01*
X766463Y626032D01*
X763537Y626032D01*
X761468Y623963D01*
X761468Y621037D01*
X763537Y618968D01*
X765522Y618968D01*
X765808Y618912D01*
X766061Y618745D01*
X793745Y591061D01*
X793908Y590820D01*
X793968Y590522D01*
X793968Y588537D01*
X796037Y586468D01*
X796934Y586468D01*
X797198Y586421D01*
X797456Y586262D01*
X797631Y586014D01*
X797696Y585718D01*
X797641Y585420D01*
X797473Y585167D01*
X725595Y513289D01*
X725595Y308605D01*
X725539Y308319D01*
X725372Y308066D01*
X711061Y293755D01*
X710820Y293592D01*
X710522Y293532D01*
X708537Y293532D01*
X706468Y291463D01*
X706468Y288537D01*
X708537Y286468D01*
X711463Y286468D01*
X713532Y288537D01*
X713532Y290522D01*
X713588Y290808D01*
X713755Y291061D01*
X729294Y306600D01*
X729514Y306753D01*
X729809Y306823D01*
X730108Y306772D01*
X730363Y306609D01*
X730535Y306359D01*
X730595Y306061D01*
X730595Y236240D01*
X730548Y235976D01*
X730389Y235718D01*
X730141Y235543D01*
X729845Y235478D01*
X729547Y235533D01*
X729294Y235701D01*
X728963Y236032D01*
X726037Y236032D01*
X723968Y233963D01*
X723968Y231037D01*
X724367Y230638D01*
X724525Y230408D01*
X724590Y230112D01*
X724534Y229814D01*
X724367Y229561D01*
X698561Y203755D01*
X698320Y203592D01*
X698022Y203532D01*
X696037Y203532D01*
X695706Y203201D01*
X695486Y203048D01*
X695191Y202978D01*
X694892Y203029D01*
X694637Y203192D01*
X694465Y203442D01*
X694405Y203740D01*
X694405Y461594D01*
X694461Y461880D01*
X694628Y462133D01*
X696032Y463537D01*
X696032Y466463D01*
X693963Y468532D01*
X691037Y468532D01*
X688968Y466463D01*
X688968Y463537D01*
X690372Y462133D01*
X690535Y461892D01*
X690595Y461594D01*
X690595Y381240D01*
X690548Y380976D01*
X690389Y380718D01*
X690141Y380543D01*
X689845Y380478D01*
X689547Y380533D01*
X689294Y380701D01*
X688963Y381032D01*
X686978Y381032D01*
X686692Y381088D01*
X686439Y381255D01*
X413755Y653939D01*
X413592Y654181D01*
X413532Y654478D01*
X413532Y656463D01*
X411463Y658532D01*
X408537Y658532D01*
X406468Y656463D01*
X406468Y653537D01*
X408537Y651468D01*
X410522Y651468D01*
X410808Y651412D01*
X411061Y651245D01*
X683745Y378561D01*
X683908Y378320D01*
X683968Y378022D01*
X683968Y376037D01*
X686037Y373968D01*
X688963Y373968D01*
X689294Y374299D01*
X689514Y374452D01*
X689809Y374522D01*
X690108Y374471D01*
X690363Y374308D01*
X690535Y374058D01*
X690595Y373760D01*
X690595Y181105D01*
X690539Y180819D01*
X690372Y180566D01*
X661061Y151255D01*
X660820Y151092D01*
X660522Y151032D01*
X658537Y151032D01*
X656468Y148963D01*
X656468Y146037D01*
X658537Y143968D01*
X661463Y143968D01*
X663532Y146037D01*
X663532Y148022D01*
X663588Y148308D01*
X663755Y148561D01*
X694405Y179211D01*
X694405Y196260D01*
X694452Y196524D01*
X694611Y196782D01*
X694859Y196957D01*
X695155Y197022D01*
X695453Y196967D01*
X695706Y196799D01*
X696037Y196468D01*
X698963Y196468D01*
X701032Y198537D01*
X701032Y200522D01*
X701088Y200808D01*
X701255Y201061D01*
X729294Y229100D01*
X729514Y229253D01*
X729809Y229323D01*
X730108Y229272D01*
X730363Y229109D01*
X730535Y228859D01*
X730595Y228561D01*
X730595Y186105D01*
X730539Y185819D01*
X730372Y185566D01*
X681061Y136255D01*
X680820Y136092D01*
X680522Y136032D01*
X678537Y136032D01*
X677133Y134628D01*
X676892Y134465D01*
X676594Y134405D01*
X438740Y134405D01*
X438476Y134452D01*
X438218Y134611D01*
X438043Y134859D01*
X437978Y135155D01*
X438033Y135453D01*
X438201Y135706D01*
X438532Y136037D01*
X438532Y138963D01*
X437128Y140367D01*
X436965Y140608D01*
X436905Y140906D01*
X436905Y333289D01*
X423755Y346439D01*
X423592Y346681D01*
X423532Y346978D01*
X423532Y348963D01*
X422128Y350367D01*
X421965Y350608D01*
X421905Y350906D01*
X421905Y356260D01*
X421952Y356524D01*
X422111Y356782D01*
X422359Y356957D01*
X422655Y357022D01*
X422953Y356967D01*
X423206Y356799D01*
X423537Y356468D01*
X426463Y356468D01*
X428532Y358537D01*
X428532Y361463D01*
X427128Y362867D01*
X426965Y363108D01*
X426905Y363406D01*
X426905Y426061D01*
X426952Y426325D01*
X427111Y426583D01*
X427359Y426758D01*
X427655Y426823D01*
X427953Y426768D01*
X428206Y426600D01*
X476245Y378561D01*
X476408Y378320D01*
X476468Y378022D01*
X476468Y376037D01*
X478537Y373968D01*
X481463Y373968D01*
X483532Y376037D01*
X483532Y378963D01*
X481463Y381032D01*
X479478Y381032D01*
X479192Y381088D01*
X478939Y381255D01*
X432128Y428066D01*
X431965Y428308D01*
X431905Y428605D01*
X431905Y551594D01*
X431961Y551880D01*
X432128Y552133D01*
X433532Y553537D01*
X433532Y556463D01*
X431463Y558532D01*
X428537Y558532D01*
X426468Y556463D01*
X426468Y553537D01*
X427872Y552133D01*
X428035Y551892D01*
X428095Y551594D01*
X428095Y538939D01*
X428048Y538675D01*
X427889Y538417D01*
X427641Y538242D01*
X427345Y538177D01*
X427047Y538232D01*
X426794Y538400D01*
X423755Y541439D01*
X423592Y541681D01*
X423532Y541978D01*
X423532Y543963D01*
X421463Y546032D01*
X418537Y546032D01*
X416468Y543963D01*
X416468Y541037D01*
X418537Y538968D01*
X420522Y538968D01*
X420808Y538912D01*
X421061Y538745D01*
X422872Y536934D01*
X423035Y536693D01*
X423095Y536395D01*
X423095Y440906D01*
X423039Y440620D01*
X422872Y440367D01*
X421468Y438963D01*
X421468Y436037D01*
X422872Y434633D01*
X423035Y434392D01*
X423095Y434094D01*
X423095Y388939D01*
X423048Y388675D01*
X422889Y388417D01*
X422641Y388242D01*
X422345Y388177D01*
X422047Y388232D01*
X421794Y388400D01*
X368755Y441439D01*
X368592Y441681D01*
X368532Y441978D01*
X368532Y443963D01*
X366463Y446032D01*
X363537Y446032D01*
X363206Y445701D01*
X362986Y445548D01*
X362691Y445478D01*
X362392Y445529D01*
X362137Y445692D01*
X361965Y445942D01*
X361905Y446240D01*
X361905Y568289D01*
X313755Y616439D01*
X313592Y616681D01*
X313532Y616978D01*
X313532Y618963D01*
X311463Y621032D01*
X308537Y621032D01*
X306468Y618963D01*
X306468Y616037D01*
X308537Y613968D01*
X310522Y613968D01*
X310808Y613912D01*
X311061Y613745D01*
X349973Y574833D01*
X350126Y574613D01*
X350196Y574318D01*
X350145Y574019D01*
X349982Y573764D01*
X349732Y573592D01*
X349434Y573532D01*
X348537Y573532D01*
X346468Y571463D01*
X346468Y568537D01*
X347872Y567133D01*
X348035Y566892D01*
X348095Y566594D01*
X348095Y425906D01*
X348039Y425620D01*
X347872Y425367D01*
X346468Y423963D01*
X346468Y421037D01*
X347872Y419633D01*
X348035Y419392D01*
X348095Y419094D01*
X348095Y359211D01*
X351245Y356061D01*
X351408Y355820D01*
X351468Y355522D01*
X351468Y353537D01*
X352872Y352133D01*
X353035Y351892D01*
X353095Y351594D01*
X353095Y191105D01*
X353039Y190819D01*
X352872Y190566D01*
X216061Y53755D01*
X215820Y53592D01*
X215522Y53532D01*
X213537Y53532D01*
X211468Y51463D01*
X211468Y48537D01*
X213537Y46468D01*
X216463Y46468D01*
X218532Y48537D01*
X218532Y50522D01*
X218588Y50808D01*
X218755Y51061D01*
X356794Y189100D01*
X357014Y189253D01*
X357309Y189323D01*
X357608Y189272D01*
X357863Y189109D01*
X358035Y188859D01*
X358095Y188561D01*
X358095Y58406D01*
X358039Y58120D01*
X357872Y57867D01*
X356468Y56463D01*
X356468Y53537D01*
X358537Y51468D01*
X361463Y51468D01*
X362867Y52872D01*
X363108Y53035D01*
X363406Y53095D01*
X610789Y53095D01*
X739405Y181711D01*
X739405Y208895D01*
X739461Y209181D01*
X739628Y209434D01*
X741439Y211245D01*
X741681Y211408D01*
X741978Y211468D01*
X742333Y211468D01*
X742608Y211417D01*
X742863Y211253D01*
X743035Y211003D01*
X743095Y210706D01*
X743095Y109211D01*
X744211Y108095D01*
X800789Y108095D01*
X819461Y126767D01*
X819692Y126925D01*
X819988Y126990D01*
X820286Y126935D01*
X820539Y126767D01*
X843497Y103809D01*
X843650Y103589D01*
X843720Y103294D01*
X843669Y102995D01*
X843506Y102740D01*
X843256Y102568D01*
X842958Y102508D01*
X738961Y102508D01*
X737492Y101039D01*
X737492Y3270D01*
X737441Y2995D01*
X737277Y2740D01*
X737027Y2568D01*
G37*
%LPC*%
G36*
X478537Y666468D02*
X481463Y666468D01*
X483532Y668537D01*
X483532Y670522D01*
X483588Y670808D01*
X483755Y671061D01*
X888939Y1076245D01*
X889181Y1076408D01*
X889478Y1076468D01*
X891463Y1076468D01*
X893532Y1078537D01*
X893532Y1081463D01*
X891463Y1083532D01*
X888537Y1083532D01*
X886468Y1081463D01*
X886468Y1079478D01*
X886412Y1079192D01*
X886245Y1078939D01*
X481061Y673755D01*
X480820Y673592D01*
X480522Y673532D01*
X478537Y673532D01*
X476468Y671463D01*
X476468Y668537D01*
X478537Y666468D01*
G37*
G36*
X433537Y661468D02*
X436463Y661468D01*
X438532Y663537D01*
X438532Y665522D01*
X438588Y665808D01*
X438755Y666061D01*
X848939Y1076245D01*
X849181Y1076408D01*
X849478Y1076468D01*
X851463Y1076468D01*
X853532Y1078537D01*
X853532Y1081463D01*
X851463Y1083532D01*
X848537Y1083532D01*
X846468Y1081463D01*
X846468Y1079478D01*
X846412Y1079192D01*
X846245Y1078939D01*
X436061Y668755D01*
X435820Y668592D01*
X435522Y668532D01*
X433537Y668532D01*
X431468Y666463D01*
X431468Y663537D01*
X433537Y661468D01*
G37*
G36*
X76037Y641468D02*
X78963Y641468D01*
X81032Y643537D01*
X81032Y646463D01*
X79628Y647867D01*
X79465Y648108D01*
X79405Y648406D01*
X79405Y956594D01*
X79461Y956880D01*
X79628Y957133D01*
X81032Y958537D01*
X81032Y961463D01*
X78963Y963532D01*
X76037Y963532D01*
X73968Y961463D01*
X73968Y958537D01*
X75372Y957133D01*
X75535Y956892D01*
X75595Y956594D01*
X75595Y648406D01*
X75539Y648120D01*
X75372Y647867D01*
X73968Y646463D01*
X73968Y643537D01*
X76037Y641468D01*
G37*
G36*
X178537Y466468D02*
X181463Y466468D01*
X183532Y468537D01*
X183532Y471463D01*
X182128Y472867D01*
X181965Y473108D01*
X181905Y473406D01*
X181905Y774094D01*
X181961Y774380D01*
X182128Y774633D01*
X183532Y776037D01*
X183532Y778963D01*
X181463Y781032D01*
X178537Y781032D01*
X176468Y778963D01*
X176468Y776037D01*
X177872Y774633D01*
X178035Y774392D01*
X178095Y774094D01*
X178095Y473406D01*
X178039Y473120D01*
X177872Y472867D01*
X176468Y471463D01*
X176468Y468537D01*
X178537Y466468D01*
G37*
G36*
X1641037Y208968D02*
X1643963Y208968D01*
X1646032Y211037D01*
X1646032Y213963D01*
X1643963Y216032D01*
X1641978Y216032D01*
X1641692Y216088D01*
X1641439Y216255D01*
X1281255Y576439D01*
X1281092Y576681D01*
X1281032Y576978D01*
X1281032Y578963D01*
X1278963Y581032D01*
X1276037Y581032D01*
X1273968Y578963D01*
X1273968Y576037D01*
X1276037Y573968D01*
X1278022Y573968D01*
X1278308Y573912D01*
X1278561Y573745D01*
X1638745Y213561D01*
X1638908Y213320D01*
X1638968Y213022D01*
X1638968Y211037D01*
X1641037Y208968D01*
G37*
G36*
X1644627Y567631D02*
X1648977Y567631D01*
X1652052Y570706D01*
X1652052Y575056D01*
X1648977Y578131D01*
X1644627Y578131D01*
X1641552Y575056D01*
X1641552Y570706D01*
X1644627Y567631D01*
G37*
G36*
X1493537Y413968D02*
X1496463Y413968D01*
X1498532Y416037D01*
X1498532Y418022D01*
X1498588Y418308D01*
X1498755Y418561D01*
X1593939Y513745D01*
X1594181Y513908D01*
X1594478Y513968D01*
X1596463Y513968D01*
X1598532Y516037D01*
X1598532Y518963D01*
X1596463Y521032D01*
X1593537Y521032D01*
X1591468Y518963D01*
X1591468Y516978D01*
X1591412Y516692D01*
X1591245Y516439D01*
X1575706Y500900D01*
X1575486Y500747D01*
X1575191Y500677D01*
X1574892Y500728D01*
X1574637Y500891D01*
X1574465Y501142D01*
X1574405Y501439D01*
X1574405Y503895D01*
X1574461Y504181D01*
X1574628Y504434D01*
X1623939Y553745D01*
X1624181Y553908D01*
X1624478Y553968D01*
X1626463Y553968D01*
X1628532Y556037D01*
X1628532Y558963D01*
X1626463Y561032D01*
X1623537Y561032D01*
X1621468Y558963D01*
X1621468Y556978D01*
X1621412Y556692D01*
X1621245Y556439D01*
X1570595Y505789D01*
X1570595Y502667D01*
X1570544Y502392D01*
X1570380Y502137D01*
X1570130Y501965D01*
X1569833Y501905D01*
X1510906Y501905D01*
X1510620Y501961D01*
X1510367Y502128D01*
X1508963Y503532D01*
X1506037Y503532D01*
X1503968Y501463D01*
X1503968Y498537D01*
X1506037Y496468D01*
X1508963Y496468D01*
X1510367Y497872D01*
X1510608Y498035D01*
X1510906Y498095D01*
X1571061Y498095D01*
X1571325Y498048D01*
X1571583Y497889D01*
X1571758Y497641D01*
X1571823Y497345D01*
X1571768Y497047D01*
X1571600Y496794D01*
X1496061Y421255D01*
X1495820Y421092D01*
X1495522Y421032D01*
X1493537Y421032D01*
X1491468Y418963D01*
X1491468Y416037D01*
X1493537Y413968D01*
G37*
G36*
X1563537Y471468D02*
X1566463Y471468D01*
X1568532Y473537D01*
X1568532Y475522D01*
X1568588Y475808D01*
X1568755Y476061D01*
X1605167Y512473D01*
X1605387Y512626D01*
X1605682Y512696D01*
X1605981Y512645D01*
X1606236Y512482D01*
X1606408Y512232D01*
X1606468Y511934D01*
X1606468Y511037D01*
X1608537Y508968D01*
X1611463Y508968D01*
X1613532Y511037D01*
X1613532Y513022D01*
X1613588Y513308D01*
X1613755Y513561D01*
X1623939Y523745D01*
X1624181Y523908D01*
X1624478Y523968D01*
X1626463Y523968D01*
X1628532Y526037D01*
X1628532Y528963D01*
X1626784Y530711D01*
X1626626Y530942D01*
X1626561Y531238D01*
X1626616Y531536D01*
X1626784Y531789D01*
X1628532Y533537D01*
X1628532Y536463D01*
X1626463Y538532D01*
X1623537Y538532D01*
X1621468Y536463D01*
X1621468Y534478D01*
X1621412Y534192D01*
X1621245Y533939D01*
X1566061Y478755D01*
X1565820Y478592D01*
X1565522Y478532D01*
X1563537Y478532D01*
X1561468Y476463D01*
X1561468Y473537D01*
X1563537Y471468D01*
G37*
G36*
X971037Y451468D02*
X973963Y451468D01*
X976032Y453537D01*
X976032Y455522D01*
X976088Y455808D01*
X976255Y456061D01*
X1046439Y526245D01*
X1046681Y526408D01*
X1046978Y526468D01*
X1048963Y526468D01*
X1051032Y528537D01*
X1051032Y531463D01*
X1048963Y533532D01*
X1046037Y533532D01*
X1043968Y531463D01*
X1043968Y529478D01*
X1043912Y529192D01*
X1043745Y528939D01*
X973561Y458755D01*
X973320Y458592D01*
X973022Y458532D01*
X971037Y458532D01*
X968968Y456463D01*
X968968Y453537D01*
X971037Y451468D01*
G37*
G36*
X1644224Y509832D02*
X1648573Y509832D01*
X1651649Y512908D01*
X1651649Y517257D01*
X1648573Y520332D01*
X1644224Y520332D01*
X1641149Y517257D01*
X1641149Y512908D01*
X1644224Y509832D01*
G37*
G36*
X1411037Y183968D02*
X1413963Y183968D01*
X1416032Y186037D01*
X1416032Y188963D01*
X1413963Y191032D01*
X1411978Y191032D01*
X1411692Y191088D01*
X1411439Y191255D01*
X1166255Y436439D01*
X1166092Y436681D01*
X1166032Y436978D01*
X1166032Y438963D01*
X1164628Y440367D01*
X1164465Y440608D01*
X1164405Y440906D01*
X1164405Y465789D01*
X1126255Y503939D01*
X1126092Y504181D01*
X1126032Y504478D01*
X1126032Y506463D01*
X1123963Y508532D01*
X1121037Y508532D01*
X1118968Y506463D01*
X1118968Y503537D01*
X1121037Y501468D01*
X1123022Y501468D01*
X1123308Y501412D01*
X1123561Y501245D01*
X1160372Y464434D01*
X1160535Y464193D01*
X1160595Y463895D01*
X1160595Y440906D01*
X1160539Y440620D01*
X1160372Y440367D01*
X1158968Y438963D01*
X1158968Y436037D01*
X1161037Y433968D01*
X1163022Y433968D01*
X1163308Y433912D01*
X1163561Y433745D01*
X1408745Y188561D01*
X1408908Y188320D01*
X1408968Y188022D01*
X1408968Y186037D01*
X1411037Y183968D01*
G37*
G36*
X1093537Y463968D02*
X1096463Y463968D01*
X1098532Y466037D01*
X1098532Y468963D01*
X1097128Y470367D01*
X1096965Y470608D01*
X1096905Y470906D01*
X1096905Y474094D01*
X1096961Y474380D01*
X1097128Y474633D01*
X1098532Y476037D01*
X1098532Y478963D01*
X1096463Y481032D01*
X1093537Y481032D01*
X1091468Y478963D01*
X1091468Y476037D01*
X1092872Y474633D01*
X1093035Y474392D01*
X1093095Y474094D01*
X1093095Y470906D01*
X1093039Y470620D01*
X1092872Y470367D01*
X1091468Y468963D01*
X1091468Y466037D01*
X1093537Y463968D01*
G37*
G36*
X216037Y423968D02*
X218963Y423968D01*
X221032Y426037D01*
X221032Y428963D01*
X218963Y431032D01*
X216978Y431032D01*
X216692Y431088D01*
X216439Y431255D01*
X201255Y446439D01*
X201092Y446681D01*
X201032Y446978D01*
X201032Y448963D01*
X198963Y451032D01*
X196037Y451032D01*
X193968Y448963D01*
X193968Y446037D01*
X196037Y443968D01*
X198022Y443968D01*
X198308Y443912D01*
X198561Y443745D01*
X213745Y428561D01*
X213908Y428320D01*
X213968Y428022D01*
X213968Y426037D01*
X216037Y423968D01*
G37*
G36*
X171037Y403968D02*
X173963Y403968D01*
X176032Y406037D01*
X176032Y408963D01*
X173963Y411032D01*
X171978Y411032D01*
X171692Y411088D01*
X171439Y411255D01*
X162527Y420167D01*
X162374Y420387D01*
X162304Y420682D01*
X162355Y420981D01*
X162518Y421236D01*
X162769Y421408D01*
X163066Y421468D01*
X163963Y421468D01*
X166032Y423537D01*
X166032Y426463D01*
X164628Y427867D01*
X164465Y428108D01*
X164405Y428406D01*
X164405Y441594D01*
X164461Y441880D01*
X164628Y442133D01*
X166032Y443537D01*
X166032Y446463D01*
X163963Y448532D01*
X161037Y448532D01*
X158968Y446463D01*
X158968Y443537D01*
X160372Y442133D01*
X160535Y441892D01*
X160595Y441594D01*
X160595Y428406D01*
X160539Y428120D01*
X160372Y427867D01*
X158968Y426463D01*
X158968Y425566D01*
X158921Y425302D01*
X158762Y425044D01*
X158514Y424869D01*
X158218Y424804D01*
X157920Y424859D01*
X157667Y425027D01*
X136255Y446439D01*
X136092Y446681D01*
X136032Y446978D01*
X136032Y448963D01*
X133963Y451032D01*
X131037Y451032D01*
X128968Y448963D01*
X128968Y446037D01*
X131037Y443968D01*
X133022Y443968D01*
X133308Y443912D01*
X133561Y443745D01*
X168745Y408561D01*
X168908Y408320D01*
X168968Y408022D01*
X168968Y406037D01*
X171037Y403968D01*
G37*
%LPD*%
G36*
X799193Y111965D02*
X798895Y111905D01*
X747667Y111905D01*
X747392Y111956D01*
X747137Y112120D01*
X746965Y112370D01*
X746905Y112667D01*
X746905Y151061D01*
X746952Y151325D01*
X747111Y151583D01*
X747359Y151758D01*
X747655Y151823D01*
X747953Y151768D01*
X748206Y151600D01*
X756245Y143561D01*
X756408Y143320D01*
X756468Y143022D01*
X756468Y141037D01*
X758537Y138968D01*
X761463Y138968D01*
X763532Y141037D01*
X763532Y143963D01*
X761784Y145711D01*
X761626Y145942D01*
X761561Y146238D01*
X761616Y146536D01*
X761784Y146789D01*
X763532Y148537D01*
X763532Y151463D01*
X762128Y152867D01*
X761965Y153108D01*
X761905Y153406D01*
X761905Y198206D01*
X761956Y198481D01*
X762120Y198736D01*
X762370Y198908D01*
X762667Y198968D01*
X763963Y198968D01*
X766032Y201037D01*
X766032Y203963D01*
X764628Y205367D01*
X764465Y205608D01*
X764405Y205906D01*
X764405Y298289D01*
X763755Y298939D01*
X763592Y299181D01*
X763532Y299478D01*
X763532Y301463D01*
X762128Y302867D01*
X761965Y303108D01*
X761905Y303406D01*
X761905Y434094D01*
X761961Y434380D01*
X762128Y434633D01*
X763532Y436037D01*
X763532Y438963D01*
X761463Y441032D01*
X758537Y441032D01*
X758206Y440701D01*
X757986Y440548D01*
X757691Y440478D01*
X757392Y440529D01*
X757137Y440692D01*
X756965Y440942D01*
X756905Y441240D01*
X756905Y461395D01*
X756961Y461681D01*
X757128Y461934D01*
X766439Y471245D01*
X766681Y471408D01*
X766978Y471468D01*
X768963Y471468D01*
X771032Y473537D01*
X771032Y475522D01*
X771088Y475808D01*
X771255Y476061D01*
X818939Y523745D01*
X819181Y523908D01*
X819478Y523968D01*
X821463Y523968D01*
X823532Y526037D01*
X823532Y528022D01*
X823588Y528308D01*
X823755Y528561D01*
X824294Y529100D01*
X824514Y529253D01*
X824809Y529323D01*
X825108Y529272D01*
X825363Y529109D01*
X825535Y528859D01*
X825595Y528561D01*
X825595Y420906D01*
X825539Y420620D01*
X825372Y420367D01*
X823968Y418963D01*
X823968Y416037D01*
X826037Y413968D01*
X828963Y413968D01*
X831032Y416037D01*
X831032Y418963D01*
X829628Y420367D01*
X829465Y420608D01*
X829405Y420906D01*
X829405Y596395D01*
X829461Y596681D01*
X829628Y596934D01*
X876439Y643745D01*
X876681Y643908D01*
X876978Y643968D01*
X878963Y643968D01*
X881032Y646037D01*
X881032Y648963D01*
X878963Y651032D01*
X876037Y651032D01*
X873968Y648963D01*
X873968Y646978D01*
X873912Y646692D01*
X873745Y646439D01*
X857333Y630027D01*
X857113Y629874D01*
X856818Y629804D01*
X856519Y629855D01*
X856264Y630018D01*
X856092Y630269D01*
X856032Y630566D01*
X856032Y631463D01*
X853963Y633532D01*
X853066Y633532D01*
X852802Y633579D01*
X852544Y633738D01*
X852369Y633986D01*
X852304Y634282D01*
X852359Y634580D01*
X852527Y634833D01*
X875566Y657872D01*
X875808Y658035D01*
X876105Y658095D01*
X1092333Y658095D01*
X1092608Y658044D01*
X1092863Y657880D01*
X1093035Y657630D01*
X1093095Y657333D01*
X1093095Y618939D01*
X1093048Y618675D01*
X1092889Y618417D01*
X1092641Y618242D01*
X1092345Y618177D01*
X1092047Y618232D01*
X1091794Y618400D01*
X1090789Y619405D01*
X861711Y619405D01*
X838095Y595789D01*
X838095Y301105D01*
X838039Y300819D01*
X837872Y300566D01*
X776061Y238755D01*
X775820Y238592D01*
X775522Y238532D01*
X773537Y238532D01*
X771468Y236463D01*
X771468Y233537D01*
X773537Y231468D01*
X776463Y231468D01*
X778532Y233537D01*
X778532Y235522D01*
X778588Y235808D01*
X778755Y236061D01*
X841794Y299100D01*
X842014Y299253D01*
X842309Y299323D01*
X842608Y299272D01*
X842863Y299109D01*
X843035Y298859D01*
X843095Y298561D01*
X843095Y283740D01*
X843048Y283476D01*
X842889Y283218D01*
X842641Y283043D01*
X842345Y282978D01*
X842047Y283033D01*
X841794Y283201D01*
X841463Y283532D01*
X838537Y283532D01*
X836468Y281463D01*
X836468Y279478D01*
X836412Y279192D01*
X836245Y278939D01*
X773095Y215789D01*
X773095Y195906D01*
X773039Y195620D01*
X772872Y195367D01*
X771468Y193963D01*
X771468Y191037D01*
X772872Y189633D01*
X773035Y189392D01*
X773095Y189094D01*
X773095Y135906D01*
X773039Y135620D01*
X772872Y135367D01*
X771468Y133963D01*
X771468Y131037D01*
X773537Y128968D01*
X775706Y128968D01*
X775981Y128917D01*
X776236Y128753D01*
X776408Y128503D01*
X776468Y128206D01*
X776468Y126037D01*
X778537Y123968D01*
X781463Y123968D01*
X783532Y126037D01*
X783532Y128022D01*
X783588Y128308D01*
X783755Y128561D01*
X786905Y131711D01*
X786905Y146260D01*
X786952Y146524D01*
X787111Y146782D01*
X787359Y146957D01*
X787655Y147022D01*
X787953Y146967D01*
X788206Y146799D01*
X788537Y146468D01*
X791463Y146468D01*
X793532Y148537D01*
X793532Y150522D01*
X793588Y150808D01*
X793755Y151061D01*
X806794Y164100D01*
X807014Y164253D01*
X807309Y164323D01*
X807608Y164272D01*
X807863Y164109D01*
X808035Y163859D01*
X808095Y163561D01*
X808095Y146105D01*
X808039Y145819D01*
X807872Y145566D01*
X796061Y133755D01*
X795820Y133592D01*
X795522Y133532D01*
X793537Y133532D01*
X791468Y131463D01*
X791468Y128537D01*
X793537Y126468D01*
X796463Y126468D01*
X798532Y128537D01*
X798532Y130522D01*
X798588Y130808D01*
X798755Y131061D01*
X811905Y144211D01*
X811905Y153760D01*
X811952Y154024D01*
X812111Y154282D01*
X812359Y154457D01*
X812655Y154522D01*
X812953Y154467D01*
X813206Y154299D01*
X813537Y153968D01*
X814633Y153968D01*
X814897Y153921D01*
X815155Y153762D01*
X815330Y153514D01*
X815395Y153218D01*
X815340Y152920D01*
X815172Y152667D01*
X813968Y151463D01*
X813968Y148537D01*
X816037Y146468D01*
X817333Y146468D01*
X817608Y146417D01*
X817863Y146253D01*
X818035Y146003D01*
X818095Y145706D01*
X818095Y131105D01*
X818039Y130819D01*
X817872Y130566D01*
X799434Y112128D01*
X799193Y111965D01*
G37*
G36*
X880130Y111965D02*
X879833Y111905D01*
X846105Y111905D01*
X845819Y111961D01*
X845566Y112128D01*
X830027Y127667D01*
X829874Y127887D01*
X829804Y128182D01*
X829855Y128481D01*
X830018Y128736D01*
X830269Y128908D01*
X830566Y128968D01*
X831463Y128968D01*
X833532Y131037D01*
X833532Y133963D01*
X832128Y135367D01*
X831965Y135608D01*
X831905Y135906D01*
X831905Y189094D01*
X831961Y189380D01*
X832128Y189633D01*
X833532Y191037D01*
X833532Y193963D01*
X833201Y194294D01*
X833048Y194514D01*
X832978Y194809D01*
X833029Y195108D01*
X833192Y195363D01*
X833442Y195535D01*
X833740Y195595D01*
X838760Y195595D01*
X839024Y195548D01*
X839282Y195389D01*
X839457Y195141D01*
X839522Y194845D01*
X839467Y194547D01*
X839299Y194294D01*
X838968Y193963D01*
X838968Y191037D01*
X840372Y189633D01*
X840535Y189392D01*
X840595Y189094D01*
X840595Y158605D01*
X840539Y158319D01*
X840372Y158066D01*
X838561Y156255D01*
X838320Y156092D01*
X838022Y156032D01*
X836037Y156032D01*
X833968Y153963D01*
X833968Y151037D01*
X836037Y148968D01*
X838963Y148968D01*
X841032Y151037D01*
X841032Y153022D01*
X841088Y153308D01*
X841255Y153561D01*
X844405Y156711D01*
X844405Y189094D01*
X844461Y189380D01*
X844628Y189633D01*
X846032Y191037D01*
X846032Y193963D01*
X845701Y194294D01*
X845548Y194514D01*
X845478Y194809D01*
X845529Y195108D01*
X845692Y195363D01*
X845942Y195535D01*
X846240Y195595D01*
X848206Y195595D01*
X848481Y195544D01*
X848736Y195380D01*
X848908Y195130D01*
X848968Y194833D01*
X848968Y193537D01*
X851037Y191468D01*
X853963Y191468D01*
X856032Y193537D01*
X856032Y196463D01*
X854628Y197867D01*
X854465Y198108D01*
X854435Y198259D01*
X853289Y199405D01*
X827667Y199405D01*
X827392Y199456D01*
X827137Y199620D01*
X826965Y199870D01*
X826905Y200167D01*
X826905Y229094D01*
X826961Y229380D01*
X827128Y229633D01*
X828532Y231037D01*
X828532Y233963D01*
X826463Y236032D01*
X823537Y236032D01*
X823206Y235701D01*
X822986Y235548D01*
X822691Y235478D01*
X822392Y235529D01*
X822137Y235692D01*
X821965Y235942D01*
X821905Y236240D01*
X821905Y251395D01*
X821961Y251681D01*
X822128Y251934D01*
X846905Y276711D01*
X846905Y424094D01*
X846961Y424380D01*
X847128Y424633D01*
X848532Y426037D01*
X848532Y428963D01*
X847128Y430367D01*
X846965Y430608D01*
X846905Y430906D01*
X846905Y588760D01*
X846952Y589024D01*
X847111Y589282D01*
X847359Y589457D01*
X847655Y589522D01*
X847953Y589467D01*
X848206Y589299D01*
X848537Y588968D01*
X849833Y588968D01*
X850108Y588917D01*
X850363Y588753D01*
X850535Y588503D01*
X850595Y588206D01*
X850595Y209211D01*
X862473Y197333D01*
X862626Y197113D01*
X862696Y196818D01*
X862645Y196519D01*
X862482Y196264D01*
X862232Y196092D01*
X861934Y196032D01*
X861037Y196032D01*
X858968Y193963D01*
X858968Y191037D01*
X860372Y189633D01*
X860535Y189392D01*
X860595Y189094D01*
X860595Y155906D01*
X860539Y155620D01*
X860372Y155367D01*
X858968Y153963D01*
X858968Y151037D01*
X861037Y148968D01*
X863963Y148968D01*
X864294Y149299D01*
X864514Y149452D01*
X864809Y149522D01*
X865108Y149471D01*
X865363Y149308D01*
X865535Y149058D01*
X865595Y148760D01*
X865595Y136240D01*
X865548Y135976D01*
X865389Y135718D01*
X865141Y135543D01*
X864845Y135478D01*
X864547Y135533D01*
X864294Y135701D01*
X863963Y136032D01*
X861037Y136032D01*
X858968Y133963D01*
X858968Y131037D01*
X861037Y128968D01*
X863022Y128968D01*
X863308Y128912D01*
X863561Y128745D01*
X873745Y118561D01*
X873908Y118320D01*
X873968Y118022D01*
X873968Y116037D01*
X876037Y113968D01*
X878963Y113968D01*
X879294Y114299D01*
X879514Y114452D01*
X879809Y114522D01*
X880108Y114471D01*
X880363Y114308D01*
X880535Y114058D01*
X880595Y113760D01*
X880595Y112667D01*
X880544Y112392D01*
X880380Y112137D01*
X880130Y111965D01*
G37*
D10*
X897500Y120000D02*
X900000Y117500D01*
X897500Y120000D02*
X897500Y162500D01*
X847500Y162500D02*
X847500Y152500D01*
X802500Y150000D02*
X790000Y137500D01*
X790000Y130000D01*
X780000Y120000D02*
X777500Y117500D01*
X780000Y120000D02*
X790000Y130000D01*
X770000Y245000D02*
X795000Y270000D01*
X770000Y170000D02*
X770000Y130000D01*
X770000Y170000D02*
X770000Y245000D01*
X770000Y130000D02*
X780000Y120000D01*
X795000Y275000D02*
X765000Y305000D01*
X795000Y275000D02*
X795000Y270000D01*
X770000Y170000D02*
X765000Y170000D01*
X765000Y305000D02*
X765000Y460000D01*
X1515000Y477500D02*
X1527500Y465000D01*
X1515000Y477500D02*
X1515000Y482500D01*
D11*
X900000Y117500D03*
X897500Y162500D03*
X847500Y152500D03*
X847500Y162500D03*
X802500Y150000D03*
X777500Y117500D03*
X795000Y270000D03*
X765000Y305000D03*
X765000Y170000D03*
X765000Y460000D03*
X1527500Y465000D03*
X1515000Y482500D03*
D10*
X1495000Y417500D02*
X1595000Y517500D01*
D11*
X1595000Y517500D03*
X1495000Y417500D03*
D10*
X1202500Y517500D02*
X1175000Y545000D01*
X1202500Y517500D02*
X1202500Y505000D01*
X1150000Y542500D02*
X1140000Y532500D01*
X1077500Y470000D01*
X1150000Y542500D02*
X1175000Y542500D01*
X1175000Y545000D01*
X1077500Y455000D02*
X1005000Y382500D01*
X1077500Y455000D02*
X1077500Y470000D01*
X1140000Y532500D02*
X1137500Y535000D01*
D11*
X1175000Y545000D03*
X1202500Y505000D03*
X1077500Y470000D03*
X1005000Y382500D03*
X1137500Y535000D03*
D10*
X1565000Y475000D02*
X1625000Y535000D01*
D11*
X1565000Y475000D03*
X1625000Y535000D03*
D10*
X1572500Y500000D02*
X1507500Y500000D01*
X1572500Y500000D02*
X1572500Y505000D01*
X1625000Y557500D01*
D11*
X1507500Y500000D03*
X1625000Y557500D03*
D10*
X1625000Y527500D02*
X1610000Y512500D01*
D11*
X1610000Y512500D03*
X1625000Y527500D03*
D10*
X1047500Y530000D02*
X972500Y455000D01*
D11*
X1047500Y530000D03*
X972500Y455000D03*
D10*
X1095000Y467500D02*
X1095000Y477500D01*
D11*
X1095000Y467500D03*
X1095000Y477500D03*
D10*
X762500Y202500D02*
X760000Y200000D01*
X760000Y150000D01*
X762500Y297500D02*
X760000Y300000D01*
X762500Y297500D02*
X762500Y202500D01*
X1162500Y437500D02*
X1412500Y187500D01*
X1162500Y465000D02*
X1122500Y505000D01*
X1162500Y465000D02*
X1162500Y437500D01*
X760000Y437500D02*
X760000Y300000D01*
X212500Y992500D02*
X212500Y1077500D01*
X332500Y557500D02*
X330000Y555000D01*
X330000Y550000D02*
X330000Y502500D01*
X330000Y550000D02*
X330000Y555000D01*
X242500Y962500D02*
X212500Y992500D01*
X242500Y962500D02*
X242500Y637500D01*
X330000Y550000D01*
X925000Y565000D02*
X950000Y540000D01*
D11*
X762500Y202500D03*
X760000Y150000D03*
X760000Y300000D03*
X1412500Y187500D03*
X1162500Y437500D03*
X1122500Y505000D03*
X760000Y437500D03*
X212500Y1077500D03*
X212500Y992500D03*
X332500Y557500D03*
X330000Y502500D03*
X950000Y540000D03*
X925000Y565000D03*
D10*
X877500Y647500D02*
X827500Y597500D01*
X827500Y417500D01*
X102500Y470000D02*
X102500Y882500D01*
D11*
X877500Y647500D03*
X827500Y417500D03*
X102500Y882500D03*
X102500Y470000D03*
D10*
X817500Y150000D02*
X820000Y147500D01*
X820000Y130000D01*
X845000Y105000D01*
X930000Y105000D01*
X425000Y537500D02*
X420000Y542500D01*
X425000Y437500D02*
X425000Y360000D01*
X425000Y437500D02*
X425000Y537500D01*
X150000Y882500D02*
X102500Y930000D01*
X150000Y882500D02*
X150000Y447500D01*
X800000Y110000D02*
X820000Y130000D01*
X800000Y110000D02*
X745000Y110000D01*
X745000Y210000D01*
X747500Y212500D01*
X747500Y272500D01*
D11*
X817500Y150000D03*
X930000Y105000D03*
X420000Y542500D03*
X425000Y360000D03*
X425000Y437500D03*
X102500Y930000D03*
X150000Y447500D03*
X747500Y272500D03*
D10*
X355000Y355000D02*
X350000Y360000D01*
X350000Y422500D02*
X350000Y570000D01*
X350000Y422500D02*
X350000Y360000D01*
X925000Y427500D02*
X990000Y492500D01*
X77500Y645000D02*
X77500Y960000D01*
X355000Y190000D02*
X215000Y50000D01*
X355000Y190000D02*
X355000Y355000D01*
D11*
X355000Y355000D03*
X350000Y570000D03*
X990000Y492500D03*
X925000Y427500D03*
X350000Y422500D03*
X77500Y960000D03*
X77500Y645000D03*
X215000Y50000D03*
D10*
X822500Y155000D02*
X825000Y152500D01*
X825000Y130000D01*
X845000Y110000D01*
X882500Y110000D02*
X940000Y110000D01*
X882500Y110000D02*
X845000Y110000D01*
X480000Y377500D02*
X430000Y427500D01*
X430000Y555000D01*
X237500Y815000D02*
X102500Y950000D01*
X237500Y815000D02*
X237500Y635000D01*
X325000Y547500D01*
X882500Y300000D02*
X882500Y110000D01*
D11*
X822500Y155000D03*
X940000Y110000D03*
X480000Y377500D03*
X430000Y555000D03*
X102500Y950000D03*
X325000Y547500D03*
X882500Y300000D03*
D10*
X920000Y580000D02*
X937500Y597500D01*
X920000Y580000D02*
X920000Y147500D01*
D11*
X937500Y597500D03*
X920000Y147500D03*
D10*
X97500Y482500D02*
X97500Y1017500D01*
D11*
X97500Y482500D03*
X97500Y1017500D03*
D10*
X365000Y132500D02*
X680000Y132500D01*
X162500Y425000D02*
X162500Y445000D01*
X732500Y497500D02*
X817500Y582500D01*
X732500Y497500D02*
X732500Y185000D01*
X680000Y132500D01*
D11*
X680000Y132500D03*
X365000Y132500D03*
X162500Y445000D03*
X162500Y425000D03*
X817500Y582500D03*
D10*
X785000Y132500D02*
X780000Y127500D01*
X785000Y132500D02*
X785000Y190000D01*
X820000Y225000D01*
X820000Y252500D01*
X845000Y277500D01*
X845000Y427500D02*
X845000Y595000D01*
X845000Y427500D02*
X845000Y277500D01*
X845000Y595000D02*
X850000Y600000D01*
X902500Y600000D01*
X217500Y427500D02*
X197500Y447500D01*
D11*
X780000Y127500D03*
X902500Y600000D03*
X197500Y447500D03*
X217500Y427500D03*
X845000Y427500D03*
D10*
X867500Y127500D02*
X877500Y117500D01*
X867500Y127500D02*
X862500Y132500D01*
X852500Y590000D02*
X850000Y592500D01*
X852500Y590000D02*
X852500Y210000D01*
X867500Y195000D01*
X867500Y127500D01*
D11*
X862500Y132500D03*
X877500Y117500D03*
X850000Y592500D03*
D10*
X930000Y157500D02*
X1057500Y30000D01*
X172500Y407500D02*
X132500Y447500D01*
X925000Y387500D02*
X930000Y382500D01*
X930000Y157500D01*
D11*
X930000Y157500D03*
X1057500Y30000D03*
X132500Y447500D03*
X172500Y407500D03*
X925000Y387500D03*
D10*
X462500Y855000D02*
X247500Y640000D01*
X462500Y1060000D02*
X462500Y1065000D01*
X462500Y1060000D02*
X462500Y855000D01*
X462500Y1060000D02*
X487500Y1085000D01*
D11*
X247500Y640000D03*
X462500Y1065000D03*
X487500Y1085000D03*
D10*
X180000Y777500D02*
X180000Y470000D01*
D11*
X180000Y777500D03*
X180000Y470000D03*
D10*
X275000Y660000D02*
X607500Y992500D01*
X607500Y1067500D01*
D11*
X275000Y660000D03*
X607500Y1067500D03*
D10*
X890000Y1080000D02*
X480000Y670000D01*
D11*
X480000Y670000D03*
X890000Y1080000D03*
D10*
X850000Y1080000D02*
X435000Y665000D01*
D11*
X435000Y665000D03*
X850000Y1080000D03*
D10*
X765000Y622500D02*
X797500Y590000D01*
D11*
X765000Y622500D03*
X797500Y590000D03*
D10*
X822500Y645000D02*
X855000Y645000D01*
X875000Y665000D01*
X1265000Y665000D01*
X1265000Y410000D01*
X1580000Y95000D01*
D11*
X822500Y645000D03*
X1580000Y95000D03*
D10*
X742500Y215000D02*
X737500Y210000D01*
X737500Y182500D01*
X610000Y55000D01*
X360000Y55000D01*
X935000Y387500D02*
X1065000Y517500D01*
X935000Y387500D02*
X935000Y377500D01*
X750000Y355000D02*
X742500Y347500D01*
X742500Y215000D01*
X360000Y567500D02*
X310000Y617500D01*
X360000Y567500D02*
X360000Y55000D01*
D11*
X742500Y215000D03*
X360000Y55000D03*
X1065000Y517500D03*
X935000Y377500D03*
X750000Y355000D03*
X310000Y617500D03*
D10*
X895000Y570000D02*
X912500Y587500D01*
X895000Y570000D02*
X895000Y527500D01*
X1270000Y560000D02*
X1632500Y197500D01*
X1270000Y560000D02*
X1270000Y582500D01*
D11*
X912500Y587500D03*
X895000Y527500D03*
X1632500Y197500D03*
X1270000Y582500D03*
D10*
X925000Y592500D02*
X902500Y570000D01*
X902500Y517500D01*
X1277500Y577500D02*
X1642500Y212500D01*
D11*
X925000Y592500D03*
X902500Y517500D03*
X1642500Y212500D03*
X1277500Y577500D03*
D10*
X842500Y157500D02*
X837500Y152500D01*
X842500Y157500D02*
X842500Y192500D01*
X687500Y377500D02*
X410000Y655000D01*
D11*
X837500Y152500D03*
X842500Y192500D03*
X410000Y655000D03*
X687500Y377500D03*
D10*
X420000Y387500D02*
X365000Y442500D01*
X420000Y387500D02*
X420000Y347500D01*
X435000Y332500D01*
X435000Y137500D01*
D11*
X365000Y442500D03*
X420000Y347500D03*
X435000Y137500D03*
D10*
X815000Y157500D02*
X825000Y167500D01*
X825000Y200000D02*
X825000Y232500D01*
X825000Y200000D02*
X825000Y197500D01*
X825000Y167500D01*
X825000Y197500D02*
X852500Y197500D01*
X852500Y195000D01*
X825000Y200000D02*
X810000Y200000D01*
D11*
X815000Y157500D03*
X825000Y232500D03*
X852500Y195000D03*
X810000Y200000D03*
D10*
X727500Y230000D02*
X697500Y200000D01*
X727500Y230000D02*
X727500Y232500D01*
D11*
X697500Y200000D03*
X727500Y232500D03*
D10*
X775000Y192500D02*
X775000Y132500D01*
X775000Y215000D02*
X840000Y280000D01*
X775000Y215000D02*
X775000Y192500D01*
D11*
X775000Y132500D03*
X775000Y192500D03*
X840000Y280000D03*
D10*
X805000Y165000D02*
X790000Y150000D01*
X805000Y165000D02*
X805000Y192500D01*
D11*
X790000Y150000D03*
X805000Y192500D03*
D10*
X902500Y147500D02*
X915000Y160000D01*
X915000Y512500D01*
X692500Y180000D02*
X660000Y147500D01*
X692500Y180000D02*
X692500Y465000D01*
D11*
X902500Y147500D03*
X915000Y512500D03*
X660000Y147500D03*
X692500Y465000D03*
D10*
X887500Y572500D02*
X920000Y605000D01*
X887500Y572500D02*
X887500Y130000D01*
D11*
X920000Y605000D03*
X887500Y130000D03*
D10*
X775000Y235000D02*
X840000Y300000D01*
X840000Y595000D01*
X862500Y617500D01*
X1090000Y617500D01*
X1090000Y555000D01*
X1092500Y552500D01*
X1140000Y552500D01*
X1140000Y555000D01*
X1142500Y557500D01*
X1150000Y557500D01*
X1150000Y547500D01*
D11*
X775000Y235000D03*
X1150000Y547500D03*
D10*
X727500Y307500D02*
X710000Y290000D01*
X727500Y307500D02*
X727500Y512500D01*
X875000Y660000D01*
X1095000Y660000D01*
X1095000Y557500D01*
D11*
X710000Y290000D03*
X1095000Y557500D03*
D10*
X1145000Y552500D02*
X1067500Y475000D01*
X1067500Y452500D01*
X935000Y320000D01*
D11*
X1145000Y552500D03*
X935000Y320000D03*
D10*
X862500Y192500D02*
X862500Y152500D01*
D11*
X862500Y152500D03*
X862500Y192500D03*
D10*
X760000Y142500D02*
X750000Y152500D01*
X750000Y185000D01*
D11*
X760000Y142500D03*
X750000Y185000D03*
D10*
X780000Y192500D02*
X780000Y150000D01*
X780000Y192500D02*
X782500Y195000D01*
D11*
X780000Y150000D03*
X782500Y195000D03*
D10*
X755000Y170000D02*
X755000Y155000D01*
D11*
X755000Y155000D03*
X755000Y170000D03*
D10*
X795000Y130000D02*
X810000Y145000D01*
X810000Y185000D01*
X817500Y192500D01*
D11*
X795000Y130000D03*
X817500Y192500D03*
D10*
X830000Y192500D02*
X830000Y132500D01*
D11*
X830000Y132500D03*
X830000Y192500D03*
D10*
X755000Y180000D02*
X755000Y462500D01*
X767500Y475000D01*
X822500Y600000D02*
X852500Y630000D01*
X822500Y600000D02*
X822500Y530000D01*
X820000Y527500D02*
X767500Y475000D01*
X820000Y527500D02*
X822500Y530000D01*
D11*
X755000Y180000D03*
X767500Y475000D03*
X852500Y630000D03*
X820000Y527500D03*
M02*
