M48
;GenerationSoftware,Autodesk,EAGLE,9.7.0*%
;CreationDate,2025-04-06T13:58:43Z*%
FMAT,2
ICI,OFF
METRIC,TZ,000.000
T2C0.300
T1C0.650
%
G90
M71
T1
X164680Y57288
X164640Y51508
T2
X84750Y15250
X84750Y16250
X80250Y15000
X77750Y11750
X79500Y27000
X76500Y30500
X76500Y17000
X76500Y46000
X152750Y46500
X151500Y48250
X159500Y51750
X149500Y41750
X117500Y54500
X120250Y50500
X107750Y47000
X100500Y38250
X113750Y53500
X156500Y47500
X162500Y53500
X150750Y50000
X162500Y55750
X161000Y51250
X162500Y52750
X104750Y53000
X97250Y45500
X109500Y46750
X109500Y47750
X76250Y20250
X76000Y15000
X76000Y30000
X141250Y18750
X116250Y43750
X112250Y50500
X76000Y43750
X21250Y107750
X21250Y99250
X33250Y55750
X33000Y50250
X95000Y54000
X92500Y56500
X87750Y64750
X82750Y41750
X10250Y88250
X10250Y47000
X81750Y15000
X93000Y10500
X42000Y54250
X42500Y36000
X42500Y43750
X10250Y93000
X15000Y44750
X74750Y27250
X35500Y35500
X35000Y57000
X99000Y49250
X92500Y42750
X35000Y42250
X7750Y96000
X7750Y64500
X21500Y5000
X82250Y15500
X94000Y11000
X48000Y37750
X43000Y55500
X10250Y95000
X32500Y54750
X88250Y30000
X93750Y59750
X92000Y14750
X9750Y48250
X9750Y101750
X68000Y13250
X36500Y13250
X16250Y44500
X16250Y42500
X81750Y58250
X78000Y12750
X90250Y60000
X19750Y44750
X21750Y42750
X84500Y42750
X86250Y13250
X87750Y11750
X85000Y59250
X93000Y15750
X105750Y3000
X13250Y44750
X17250Y40750
X92500Y38750
X24750Y64000
X46250Y106500
X48750Y108500
X18000Y77750
X18000Y47000
X27500Y66000
X60750Y106750
X48000Y67000
X89000Y108000
X43500Y66500
X85000Y108000
X76500Y62250
X79750Y59000
X82250Y64500
X158000Y9500
X74250Y21500
X36000Y5500
X106500Y51750
X93500Y37750
X75000Y35500
X31000Y61750
X91250Y58750
X89500Y52750
X163250Y19750
X127000Y58250
X92500Y59250
X90250Y51750
X164250Y21250
X127750Y57750
X83750Y15250
X84250Y19250
X41000Y65500
X68750Y37750
X36500Y44250
X90000Y11750
X43500Y13750
X81500Y15750
X82500Y23250
X85250Y19500
X81000Y20000
X69750Y20000
X72750Y23250
X77500Y13250
X77500Y19250
X84000Y28000
X79000Y15000
X80500Y19250
X90250Y14750
X91500Y51250
X66000Y14750
X69250Y46500
X92000Y60500
X88750Y13000
X77500Y23500
X115000Y54750
X42000Y34750
X109500Y55750
X114500Y55250
X93500Y32000
X86250Y15250
X86250Y19250
X76000Y14250
X75000Y18500
X78000Y15000
X78250Y19500
X75500Y15500
X75500Y17000
X79500Y13000
X81750Y19250
X83000Y13250
X83000Y19250
X75500Y18000
X76750Y47500
X85250Y63000
X82000Y52750
X89750Y16250
X71000Y29000
M30